<?xml version="1.0" standalone="no"?>
<!DOCTYPE svg PUBLIC "-//W3C//DTD SVG 1.1//EN" "http://www.w3.org/Graphics/SVG/1.1/DTD/svg11.dtd" >
<svg xmlns="http://www.w3.org/2000/svg">
<metadata>Generated by IcoMoon</metadata>
<defs>
<font id="exmo_icons" horiz-adv-x="1024">
<font-face units-per-em="1024" ascent="960" descent="-64" />
<missing-glyph horiz-adv-x="1024" />
<glyph unicode="&#x20;" horiz-adv-x="512" d="" />
<glyph unicode="&#xe900;" glyph-name="chat_refresh" horiz-adv-x="819" d="M147.456 475.853c0 106.496 98.304 193.331 218.726 193.331 111.411 0 205.619-73.728 217.088-172.032 0.819-7.373-4.096-13.926-11.469-14.746s-13.926 4.096-14.746 11.469c-10.65 85.197-92.57 149.094-191.693 149.094-106.496 0-192.512-75.366-192.512-167.117 0-38.502 14.746-74.547 42.598-104.038 3.277-3.277 4.096-9.011 2.458-13.107-4.915-13.926-13.107-26.214-22.118-36.045 14.746 0 33.587 3.277 51.61 13.926 4.096 2.458 9.011 2.458 13.107 0 31.13-18.022 67.994-27.034 104.858-27.034 20.48 0 40.96 2.458 59.802 8.192 6.554 1.638 13.926-2.458 16.384-9.011 1.638-7.373-2.458-13.926-9.011-16.384-21.299-5.734-44.237-9.011-67.174-9.011-39.322 0-77.824 9.011-111.411 27.034-31.13-15.565-63.078-14.746-80.282-12.288-8.192 0.819-13.926 6.554-15.565 14.746-1.638 7.373 1.638 15.565 8.192 19.661 10.65 6.554 18.842 16.384 24.576 28.672-27.853 31.949-43.418 72.909-43.418 114.688zM352.256 475.853c0-7.373 6.554-13.926 13.926-13.926s13.926 6.554 13.926 13.926-6.554 13.926-13.926 13.926-13.926-5.734-13.926-13.926zM292.454 475.853c0-7.373 6.554-13.926 13.926-13.926s13.926 6.554 13.926 13.926-6.554 13.926-13.926 13.926-13.926-5.734-13.926-13.926zM439.91 475.853c0 7.373-6.554 13.926-13.926 13.926s-13.926-6.554-13.926-13.926 6.554-13.926 13.926-13.926 13.926 6.554 13.926 13.926zM669.286 357.888l-25.395 38.502c-2.458 3.277-5.734 4.915-9.011 5.734-4.096 0.819-7.373-0.819-10.65-3.277l-33.587-30.31c-5.734-4.915-5.734-13.107-0.819-18.842s13.107-5.734 18.842-0.819l9.011 8.192c-5.734-36.045-36.045-63.078-73.728-63.078-19.661 0-38.502 7.373-52.429 22.118-4.915 4.915-13.107 4.915-18.842 0-4.915-4.915-4.915-13.107 0-18.842 18.842-18.842 44.237-29.491 71.27-29.491 49.152 0 90.931 36.045 99.123 82.739l4.915-7.373c2.458-4.096 6.554-5.734 10.65-5.734 2.458 0 4.915 0.819 7.373 2.458 5.734 4.096 7.373 12.288 3.277 18.022zM543.949 443.085c19.661 0 38.502-7.373 52.429-22.118 4.915-4.915 13.107-4.915 18.842 0 4.915 4.915 4.915 13.107 0 18.842-18.842 18.842-44.237 29.491-71.27 29.491-47.514 0-87.654-33.587-98.304-77.824l-4.915 7.373c-4.096 5.734-12.288 7.373-18.022 3.277s-7.373-12.288-3.277-18.022l25.395-38.502c2.458-3.277 5.734-4.915 9.011-5.734 0.819 0 0.819 0 1.638 0 3.277 0 6.554 0.819 9.011 3.277l33.587 30.31c5.734 4.915 5.734 13.107 0.819 18.842s-13.107 5.734-18.842 0.819l-9.011-8.192c8.192 33.587 37.683 58.163 72.909 58.163z" />
<glyph unicode="&#xe901;" glyph-name="checkmark" horiz-adv-x="819" d="M752.026 747.517c-4.096-0.819-8.192-2.458-10.65-5.734l-439.091-511.181-225.28 209.715c-6.554 6.554-17.203 5.734-22.938-0.819-6.554-6.554-5.734-17.203 0.819-22.938v0l237.568-221.184c6.554-6.554 17.203-5.734 22.938 0.819 0 0 0.819 0.819 0.819 0.819l450.56 524.288c5.734 6.554 5.734 17.203-1.638 22.938-4.096 1.638-8.192 3.277-13.107 3.277v0z" />
<glyph unicode="&#xe902;" glyph-name="checkmark2" horiz-adv-x="819" d="M348.16 277.606c-9.011 0-18.022 4.096-25.395 10.65l-141.722 141.722c-13.926 13.926-13.926 36.045 0 49.971s36.045 13.926 49.971 0l114.688-114.688 240.026 281.805c12.288 14.746 35.226 16.384 49.971 4.096s16.384-35.226 4.096-49.971l-264.602-311.296c-6.554-7.373-15.565-12.288-25.395-12.288-0.819 0-1.638 0-1.638 0z" />
<glyph unicode="&#xe903;" glyph-name="close" horiz-adv-x="819" d="M146.637 739.325c-4.096-0.819-8.192-4.096-7.373-9.011 0-1.638 0.819-4.096 2.458-4.915l256.41-256.41-256.41-256.41c-3.277-3.277-3.277-8.192 0-11.469s8.192-3.277 11.469 0c0 0 0 0 0 0l256.41 256.41 256.41-256.41c3.277-3.277 8.192-3.277 11.469 0s3.277 8.192 0 11.469l-256.41 256.41 256.41 256.41c3.277 3.277 3.277 8.192 0 11.469-1.638 1.638-4.096 2.458-6.554 2.458s-4.096-0.819-5.734-2.458l-255.59-256.41-256.41 256.41c-1.638 1.638-4.096 2.458-6.554 2.458z" />
<glyph unicode="&#xe904;" glyph-name="uparrow" horiz-adv-x="819" d="M675.64 289.28c10.24-10.24 25.6-10.24 35.84 0s10.24 25.6 0 35.84l-281.6 281.6c-10.24 10.24-25.6 10.24-35.84 0v0l-281.6-281.6c-10.24-10.24-10.24-25.6 0-35.84s25.6-10.24 35.84 0l261.12 261.12 266.24-261.12z" />
<glyph unicode="&#xe905;" glyph-name="downarrow2" horiz-adv-x="819" d="M419.43 215.347l147.456 147.456c4.915 4.915 4.915 13.926 0 18.842s-13.926 4.915-18.842 0l-125.338-124.518v454.656c0 7.373-5.734 13.107-13.107 13.107s-13.107-5.734-13.107-13.107v-454.656l-124.518 124.518c-4.915 4.915-13.926 4.915-18.842 0-2.458-2.458-4.096-5.734-4.096-9.83s1.638-6.554 4.096-9.83l147.456-147.456c2.458-2.458 5.734-4.096 9.83-4.096 2.458 0.819 6.554 2.458 9.011 4.915z" />
<glyph unicode="&#xe906;" glyph-name="email" horiz-adv-x="819" d="M58.163 704v-416.973h688.128v414.925l-344.064-268.288zM58.163 785.101v-36.045l344.064-266.24 344.064 266.24v36.045z" />
<glyph unicode="&#xe907;" glyph-name="location" horiz-adv-x="836" d="M421.888 468.48c53.248 0 95.573 42.325 95.573 95.573s-42.325 95.573-95.573 95.573-95.573-42.325-95.573-95.573 43.691-95.573 95.573-95.573zM421.888 632.32c38.229 0 68.267-30.037 68.267-68.267s-30.037-68.267-68.267-68.267-68.267 30.037-68.267 68.267 31.403 68.267 68.267 68.267zM685.397 318.293h-98.304l40.96 60.075c79.189 105.131 66.901 277.163-24.576 368.64-47.787 49.152-113.323 76.459-182.955 76.459s-135.168-27.307-185.685-76.459c-91.477-91.477-102.4-263.509-24.576-367.275l42.325-60.075h-102.4l-150.187-315.392h835.584l-150.187 314.027zM232.107 394.752c-70.997 94.208-60.075 249.856 21.845 333.141 43.691 43.691 102.4 68.267 165.205 68.267s121.515-24.576 165.205-68.267c81.92-81.92 92.843-237.568 21.845-333.141l-185.685-270.336-188.416 270.336zM166.571 290.987h103.765l148.821-215.723 150.187 215.723h99.669l122.88-259.413h-748.203l122.88 259.413z" />
<glyph unicode="&#xe908;" glyph-name="options" horiz-adv-x="819" d="M329.956 102.116c-6.827 0-13.653 0-20.48 2.276-20.48 6.827-38.684 13.653-56.889 22.756-27.307 13.653-43.236 45.511-36.409 75.093 2.276 13.653 0 29.582-11.378 38.684s-25.031 13.653-38.684 11.378c-29.582-6.827-59.164 9.102-75.093 36.409-9.102 18.204-18.204 38.684-22.756 56.889-9.102 29.582 2.276 61.44 27.307 75.093 11.378 6.827 20.48 20.48 20.48 36.409v0 0c0 13.653-6.827 27.307-20.48 36.409-25.031 15.929-36.409 47.787-27.307 75.093 6.827 20.48 13.653 38.684 22.756 56.889 15.929 29.582 45.511 45.511 75.093 38.684 13.653-4.551 29.582 0 38.684 9.102 9.102 11.378 13.653 25.031 11.378 38.684-6.827 29.582 9.102 59.164 36.409 75.093 18.204 9.102 38.684 18.204 56.889 22.756 29.582 9.102 61.44-2.276 75.093-27.307 6.827-11.378 20.48-20.48 36.409-20.48 13.653 0 27.307 6.827 36.409 20.48 15.929 25.031 47.787 36.409 75.093 27.307 20.48-6.827 38.684-13.653 56.889-22.756 27.307-13.653 43.236-45.511 36.409-75.093-2.276-13.653 0-29.582 11.378-38.684s25.031-13.653 38.684-9.102c29.582 6.827 59.164-9.102 75.093-36.409 9.102-18.204 18.204-38.684 22.756-56.889 9.102-29.582-2.276-61.44-27.307-75.093-11.378-6.827-20.48-20.48-20.48-36.409 0-13.653 6.827-27.307 20.48-36.409 25.031-15.929 36.409-47.787 27.307-75.093-6.827-20.48-13.653-38.684-22.756-56.889-13.653-27.307-45.511-43.236-75.093-36.409-13.653 2.276-29.582 0-38.684-11.378s-13.653-25.031-11.378-38.684c6.827-29.582-9.102-59.164-36.409-75.093-18.204-9.102-38.684-18.204-56.889-22.756-29.582-9.102-61.44 2.276-75.093 27.307-6.827 11.378-20.48 20.48-36.409 20.48-13.653 0-27.307-6.827-36.409-20.48-11.378-20.48-31.858-31.858-54.613-31.858zM175.218 300.089c22.756 0 45.511-9.102 61.44-25.031 20.48-20.48 29.582-52.338 22.756-81.92-2.276-9.102 4.551-18.204 13.653-22.756 15.929-9.102 34.133-15.929 50.062-20.48 9.102-2.276 18.204 0 22.756 6.827 15.929 25.031 43.236 40.96 75.093 40.96 29.582 0 59.164-15.929 75.093-40.96 4.551-6.827 13.653-11.378 22.756-6.827 18.204 4.551 34.133 11.378 50.062 20.48 9.102 4.551 15.929 13.653 13.653 22.756-6.827 29.582 2.276 59.164 22.756 81.92 20.48 20.48 52.338 29.582 81.92 22.756 9.102-2.276 18.204 4.551 22.756 13.653 9.102 15.929 15.929 34.133 20.48 50.062 2.276 9.102 0 18.204-6.827 22.756-25.031 15.929-40.96 43.236-40.96 75.093 0 29.582 15.929 59.164 40.96 75.093 6.827 4.551 11.378 13.653 6.827 22.756-4.551 18.204-11.378 34.133-20.48 50.062-4.551 9.102-13.653 15.929-22.756 13.653-29.582-6.827-59.164 2.276-81.92 22.756-20.48 20.48-29.582 52.338-22.756 81.92 2.276 9.102-4.551 18.204-13.653 22.756-15.929 9.102-34.133 15.929-50.062 20.48-9.102 2.276-18.204 0-22.756-6.827-15.929-25.031-43.236-40.96-75.093-40.96-29.582 0-59.164 15.929-75.093 40.96-4.551 6.827-13.653 11.378-22.756 6.827-15.929-6.827-34.133-13.653-50.062-22.756-9.102-4.551-15.929-13.653-13.653-22.756 6.827-29.582-2.276-59.164-22.756-81.92-20.48-20.48-52.338-29.582-81.92-22.756-9.102 2.276-18.204-4.551-22.756-13.653-9.102-15.929-15.929-34.133-20.48-50.062-2.276-9.102 0-18.204 6.827-22.756 25.031-15.929 40.96-43.236 40.96-75.093v0 0c0-29.582-15.929-59.164-40.96-75.093-6.827-4.551-11.378-13.653-6.827-22.756 4.551-18.204 11.378-34.133 20.48-50.062 4.551-9.102 13.653-15.929 22.756-13.653 6.827 2.276 13.653 4.551 20.48 4.551zM420.978 275.058c-100.124 0-182.044 81.92-182.044 182.044s81.92 182.044 182.044 182.044 182.044-81.92 182.044-182.044v0 0c0-100.124-81.92-182.044-182.044-182.044zM420.978 593.636c-75.093 0-136.533-61.44-136.533-136.533s61.44-136.533 136.533-136.533 136.533 61.44 136.533 136.533c0 77.369-61.44 136.533-136.533 136.533z" />
<glyph unicode="&#xe909;" glyph-name="photosecure" horiz-adv-x="819" d="M222.003 399.667v0 0c-2.458 5.734-8.192 9.011-13.926 6.554-5.734-1.638-8.192-8.192-6.554-13.107v-0.819c1.638-5.734 8.192-8.192 13.107-6.554 6.554 2.458 9.83 9.011 7.373 13.926zM236.749 368.538v0 0c-3.277 5.734-9.83 7.373-14.746 4.096s-6.554-9.011-4.096-13.926v-0.819c3.277-4.915 9.011-6.554 14.746-4.096 5.734 3.277 7.373 9.83 4.096 14.746zM257.229 339.866v0c-4.096 4.915-10.65 5.734-14.746 1.638s-4.915-10.65-1.638-14.746v-0.819c4.096-4.096 10.65-4.915 14.746-1.638 4.915 4.915 4.915 11.469 1.638 15.565v0zM310.477 295.629v0 0c-5.734 3.277-12.288 1.638-14.746-3.277s-0.819-11.469 4.096-14.746h0.819c4.915-3.277 11.469-0.819 13.926 4.096s0.819 11.469-4.096 13.926zM212.992 433.254v0c-0.819 6.554-6.554 9.83-12.288 9.011s-9.83-6.554-8.192-12.288v-0.819c0.819-5.734 6.554-9.83 12.288-8.192s9.83 6.554 8.192 12.288zM281.805 315.29v0c-4.915 4.096-11.469 3.277-15.565-0.819s-3.277-10.65 1.638-14.746h0.819c4.096-4.096 10.65-3.277 14.746 1.638 3.277 4.096 2.458 10.65-1.638 13.926v0zM208.896 529.92c5.734-1.638 11.469 0.819 13.107 6.554v0 0.819c1.638 5.734-0.819 11.469-6.554 13.107s-11.469-0.819-13.107-6.554v-0.819c-1.638-4.915 0.819-11.469 6.554-13.107zM222.003 563.507c4.915-3.277 11.469-0.819 13.926 4.096v0 0.819c3.277 4.915 0.819 11.469-4.096 14.746s-11.469 0.819-14.746-4.096v-0.819c-1.638-4.915 0-11.469 4.915-14.746zM200.704 493.875c5.734-0.819 11.469 2.458 12.288 8.192v0 0.819c0.819 5.734-2.458 11.469-8.192 12.288s-11.469-2.458-12.288-8.192v-0.819c-0.819-5.734 3.277-11.469 8.192-12.288zM210.534 467.661v0 0c0 6.554-4.915 11.469-10.65 11.469s-10.65-4.915-10.65-10.65v0-0.819c0-5.734 4.915-10.65 10.65-10.65 5.734 0.819 10.65 4.915 10.65 10.65zM537.395 316.109v0 0c-4.915-4.096-5.734-10.65-1.638-14.746s10.65-4.915 14.746-1.638h0.819c4.096 4.096 4.915 10.65 1.638 14.746-4.096 4.915-10.65 4.915-15.565 1.638zM477.594 280.883v0 0c-5.734-2.458-9.011-8.192-6.554-13.926 1.638-5.734 8.192-8.192 13.107-6.554h0.819c5.734 1.638 8.192 8.192 6.554 13.107-2.458 6.554-8.192 9.83-13.926 7.373zM509.542 295.629v0 0c-5.734-3.277-7.373-9.83-4.096-14.746s9.011-6.554 13.926-4.096h0.819c4.915 3.277 6.554 9.011 4.096 14.746-3.277 5.734-9.83 7.373-14.746 4.096zM444.006 271.872v0c-6.554-0.819-9.83-6.554-9.011-12.288s6.554-9.83 12.288-8.192h0.819c5.734 0.819 9.83 6.554 8.192 12.288-0.819 5.734-6.554 9.83-12.288 8.192zM256.41 596.275v0c4.096 4.915 3.277 11.469-0.819 15.565s-10.65 3.277-14.746-1.638v-0.819c-4.096-4.096-3.277-10.65 1.638-14.746 4.096-3.277 10.65-3.277 13.926 1.638zM375.194 271.872v0c-6.554 0.819-11.469-2.458-13.107-8.192-0.819-5.734 2.458-11.469 8.192-12.288h0.819c5.734-0.819 11.469 2.458 12.288 8.192 1.638 5.734-2.458 11.469-8.192 12.288zM341.606 280.883v0c-5.734 2.458-12.288-0.819-13.926-5.734-1.638-5.734 0.819-11.469 6.554-13.107h0.819c5.734-1.638 11.469 0.819 13.107 6.554 1.638 4.096-0.819 10.65-6.554 12.288zM561.971 340.685v0 0c-4.096-4.915-3.277-11.469 0.819-15.565s10.65-3.277 14.746 1.638l0.819 0.819c4.096 4.096 3.277 10.65-1.638 14.746-4.096 3.277-10.65 2.458-14.746-1.638zM409.6 269.414v0 0c-6.554 0-11.469-4.915-11.469-10.65s4.915-10.65 10.65-10.65v0 0c5.734 0 10.65 4.915 10.65 10.65s-4.096 10.65-9.83 10.65zM537.395 621.67v0c4.915-4.096 11.469-3.277 15.565 0.819s3.277 11.469-1.638 14.746h-0.819c-4.096 4.096-11.469 3.277-14.746-1.638-3.277-3.277-3.277-10.65 1.638-13.926v0zM617.677 442.266c-5.734 0.819-11.469-2.458-12.288-8.192v0-0.819c-0.819-5.734 2.458-11.469 8.192-12.288s11.469 2.458 12.288 8.192v0.819c1.638 5.734-2.458 11.469-8.192 12.288zM605.389 503.706v0 0c0.819-6.554 6.554-9.83 12.288-9.011s9.83 6.554 8.192 12.288v0.819c-0.819 5.734-6.554 9.83-12.288 8.192-4.915-0.819-9.011-6.554-8.192-12.288zM561.971 597.094v0c4.096-4.915 10.65-5.734 14.746-1.638s4.915 10.65 1.638 14.746v0.819c-4.096 4.096-10.65 4.915-14.746 1.638-4.915-4.096-5.734-11.469-1.638-15.565v0zM596.378 537.293v0 0c2.458-5.734 8.192-9.011 13.926-6.554s8.192 8.192 6.554 13.107v0.819c-1.638 5.734-8.192 8.192-13.107 6.554-6.554-2.458-9.011-8.192-7.373-13.926zM629.965 468.48v0c0 6.554-4.915 11.469-10.65 11.469s-10.65-4.915-10.65-10.65v-1.638c0-5.734 4.915-10.65 10.65-10.65s10.65 4.915 10.65 10.65v0.819zM581.632 568.422v0 0c3.277-5.734 9.83-7.373 14.746-4.096s6.554 9.011 4.096 14.746v0.819c-3.277 4.915-9.011 6.554-14.746 4.096-4.915-4.096-6.554-9.83-4.096-15.565zM610.304 406.221c-5.734 1.638-11.469-0.819-13.107-6.554v0-0.819c-1.638-5.734 0.819-11.469 6.554-13.107s11.469 0.819 13.107 6.554v0.819c1.638 5.734-0.819 11.469-6.554 13.107zM508.723 641.331v0 0c5.734-3.277 12.288-1.638 14.746 3.277 3.277 4.915 0.819 11.469-4.096 13.926h-0.819c-4.915 3.277-11.469 0.819-13.926-4.096-2.458-3.277-0.819-9.83 4.096-13.107zM374.374 665.088v0 0c6.554 0.819 9.83 6.554 9.011 12.288s-6.554 9.83-12.288 8.192h-0.819c-5.734-0.819-9.83-6.554-8.192-12.288 0.819-5.734 6.554-9.83 12.288-8.192zM309.658 640.512v0c5.734 3.277 7.373 9.83 4.096 14.746s-9.011 6.554-13.926 4.096h-0.819c-4.915-3.277-6.554-9.011-4.096-14.746 3.277-4.915 9.83-6.554 14.746-4.096zM596.378 372.634c-4.915 3.277-11.469 0.819-13.926-4.096v0-0.819c-3.277-4.915-0.819-11.469 4.096-14.746s11.469-0.819 14.746 4.096v0.819c1.638 5.734 0 12.288-4.915 14.746zM280.986 620.851v0 0c4.915 4.096 5.734 10.65 1.638 14.746s-10.65 4.915-14.746 1.638h-0.819c-4.096-4.096-4.915-10.65-1.638-14.746 4.915-4.915 11.469-5.734 15.565-1.638zM340.787 655.258v0 0c5.734 2.458 9.011 8.192 6.554 13.926s-8.192 8.192-13.107 6.554h-0.819c-5.734-1.638-8.192-8.192-6.554-13.107 2.458-6.554 8.192-9.011 13.926-7.373zM476.774 656.077v0 0c5.734-2.458 12.288 0.819 13.926 5.734 1.638 5.734-0.819 11.469-6.554 13.107h-0.819c-5.734 1.638-11.469-0.819-13.107-6.554-1.638-4.096 1.638-10.65 6.554-12.288zM408.781 667.546v0c6.554 0 10.65 4.915 10.65 10.65s-4.915 10.65-10.65 10.65h-0.819c-5.734 0-10.65-4.915-10.65-10.65 0.819-5.734 5.734-10.65 11.469-10.65zM256.41 596.275v0 0zM443.187 665.088v0 0c6.554-0.819 11.469 2.458 12.288 8.192s-2.458 11.469-8.192 12.288h-0.819c-5.734 0.819-11.469-2.458-12.288-8.192 0-5.734 3.277-11.469 9.011-12.288zM409.6 623.309c-85.197 0-154.829-68.813-154.829-154.829 0-85.197 68.813-154.829 154.829-154.829 85.197 0 154.829 68.813 154.829 154.829 0 85.197-69.632 154.829-154.829 154.829zM502.17 375.91c-23.757-23.757-56.525-38.502-92.57-38.502s-68.813 14.746-92.57 38.502c-23.757 23.757-38.502 56.525-38.502 92.57s14.746 68.813 38.502 92.57c23.757 23.757 56.525 38.502 92.57 38.502s68.813-14.746 92.57-38.502c23.757-23.757 38.502-56.525 38.502-92.57-0.819-36.045-14.746-68.813-38.502-92.57zM409.6 539.75c-39.322 0-71.27-31.949-71.27-71.27s31.949-71.27 71.27-71.27c39.322 0 71.27 31.949 71.27 71.27s-31.949 71.27-71.27 71.27zM409.6 432.435c-19.661 0-35.226 16.384-36.045 36.045 0 19.661 16.384 35.226 36.045 36.045 19.661 0 35.226-16.384 36.045-36.045-0.819-19.661-16.384-35.226-36.045-36.045z" />
<glyph unicode="&#xe90a;" glyph-name="search" horiz-adv-x="819" d="M747.93 164.557l-186.778 187.597c43.418 50.79 69.632 117.146 69.632 190.054 0 163.021-131.891 294.912-294.912 294.912s-294.912-131.891-294.912-294.912 131.891-294.912 294.912-294.912c72.909 0 139.264 26.214 190.054 69.632l186.778-186.778c6.554-6.554 17.203-6.554 22.938 0l11.469 11.469c7.373 6.554 7.373 16.384 0.819 22.938zM90.112 542.208c0 135.168 110.592 245.76 245.76 245.76s245.76-110.592 245.76-245.76-110.592-245.76-245.76-245.76-245.76 110.592-245.76 245.76z" />
<glyph unicode="&#xe90b;" glyph-name="sound_off" horiz-adv-x="819" d="M413.696 753.152c-12.288 6.144-28.672 6.144-40.96-2.048l-2.048-2.048-102.4-100.352h-59.392c-59.392 0-106.496-47.104-106.496-106.496v-106.496c0-59.392 47.104-106.496 106.496-106.496h59.392l104.448-102.4c6.144-4.096 14.336-8.192 22.528-8.192 6.144 0 12.288 2.048 18.432 4.096 12.288 6.144 20.48 20.48 20.48 34.816v460.8c2.048 16.384-6.144 28.672-20.48 34.816zM395.264 263.68l-104.448 102.4c-4.096 4.096-8.192 6.144-14.336 6.144h-67.584c-36.864 0-65.536 28.672-65.536 65.536v106.496c0 36.864 28.672 65.536 65.536 65.536h67.584c6.144 0 10.24 2.048 14.336 6.144l104.448 102.4v-454.656z" />
<glyph unicode="&#xe90c;" glyph-name="sound_on" horiz-adv-x="819" d="M413.696 753.152c-12.288 6.144-28.672 6.144-40.96-2.048l-2.048-2.048-102.4-100.352h-59.392c-59.392 0-106.496-47.104-106.496-106.496v-106.496c0-59.392 47.104-106.496 106.496-106.496h59.392l104.448-102.4c6.144-4.096 14.336-8.192 22.528-8.192 6.144 0 12.288 2.048 18.432 4.096 12.288 6.144 20.48 20.48 20.48 34.816v460.8c2.048 16.384-6.144 28.672-20.48 34.816zM395.264 263.68l-104.448 102.4c-4.096 4.096-8.192 6.144-14.336 6.144h-67.584c-36.864 0-65.536 28.672-65.536 65.536v106.496c0 36.864 28.672 65.536 65.536 65.536h67.584c6.144 0 10.24 2.048 14.336 6.144l104.448 102.4v-454.656zM505.856 605.696c-8.192 8.192-20.48 8.192-28.672 0s-8.192-20.48 0-28.672c22.528-22.528 36.864-53.248 36.864-86.016s-12.288-63.488-36.864-86.016c-8.192-8.192-8.192-20.48 0-28.672 4.096-4.096 10.24-6.144 14.336-6.144s10.24 2.048 14.336 6.144c30.72 30.72 47.104 71.68 47.104 116.736 0 38.912-16.384 79.872-47.104 112.64zM563.2 663.040c-8.192 8.192-20.48 8.192-28.672 0s-8.192-20.48 0-28.672c79.872-79.872 79.872-208.896 0-288.768-8.192-8.192-8.192-20.48 0-28.672 4.096-4.096 10.24-6.144 14.336-6.144s10.24 2.048 14.336 6.144c96.256 94.208 96.256 249.856 0 346.112zM620.544 720.384c-8.192 8.192-20.48 8.192-28.672 0s-8.192-20.48 0-28.672c112.64-112.64 112.64-292.864 0-405.504-8.192-8.192-8.192-20.48 0-28.672 4.096-4.096 10.24-6.144 14.336-6.144s10.24 2.048 14.336 6.144c129.024 126.976 129.024 335.872 0 462.848z" />
<glyph unicode="&#xe90d;" glyph-name="terminal" horiz-adv-x="819" d="M106.496 763.082c-27.034 0-49.152-22.118-49.152-49.152v-491.52c0-27.034 22.118-49.152 49.152-49.152h606.208c27.034 0 49.152 22.118 49.152 49.152v491.52c0 27.034-22.118 49.152-49.152 49.152 0 0-606.208 0-606.208 0zM106.496 746.698h606.208c18.022 0 32.768-14.746 32.768-32.768v-114.688h-671.744v114.688c0 18.842 14.746 32.768 32.768 32.768zM147.456 705.738c-18.022 0-32.768-14.746-32.768-32.768s14.746-32.768 32.768-32.768 32.768 14.746 32.768 32.768-14.746 32.768-32.768 32.768zM253.952 705.738c-18.022 0-32.768-14.746-32.768-32.768s14.746-32.768 32.768-32.768 32.768 14.746 32.768 32.768-14.746 32.768-32.768 32.768zM360.448 705.738c-18.022 0-32.768-14.746-32.768-32.768s14.746-32.768 32.768-32.768 32.768 14.746 32.768 32.768-14.746 32.768-32.768 32.768zM147.456 689.354c9.011 0 16.384-7.373 16.384-16.384s-7.373-16.384-16.384-16.384-16.384 7.373-16.384 16.384 7.373 16.384 16.384 16.384zM253.952 689.354c9.011 0 16.384-7.373 16.384-16.384s-7.373-16.384-16.384-16.384c-9.011 0-16.384 7.373-16.384 16.384s7.373 16.384 16.384 16.384zM360.448 689.354c9.011 0 16.384-7.373 16.384-16.384s-7.373-16.384-16.384-16.384-16.384 7.373-16.384 16.384 7.373 16.384 16.384 16.384zM73.728 582.858h671.744v-360.448c0-18.022-14.746-32.768-32.768-32.768h-606.208c-18.022 0-32.768 14.746-32.768 32.768v360.448zM585.728 509.13c-20.48-2.458-36.864-19.661-36.864-40.96 0-9.011 3.277-17.203 7.373-23.757l-60.621-72.090c-6.554 4.096-13.107 5.734-21.299 5.734-10.65 0-20.48-4.096-27.853-11.469l-65.536 52.429c2.458 4.915 3.277 10.65 3.277 16.384 0 22.118-18.842 40.96-40.96 40.96s-40.96-18.842-40.96-40.96c0-9.011 3.277-17.203 7.373-23.757l-60.621-72.090c-6.554 4.096-13.107 5.734-21.299 5.734-22.118 0-40.96-18.842-40.96-40.96s18.842-40.96 40.96-40.96 40.96 18.842 40.96 40.96c0 9.011-3.277 17.203-7.373 23.757l60.621 72.090c6.554-4.096 13.107-6.554 21.299-6.554 10.65 0 20.48 4.096 27.853 11.469l65.536-52.429c-2.458-4.915-3.277-10.65-3.277-16.384 0-22.118 18.842-40.96 40.96-40.96s40.96 18.842 40.96 40.96c0 9.011-3.277 17.203-7.373 23.757l60.621 72.090c6.554-4.096 13.107-6.554 21.299-6.554 22.118 0 40.96 18.842 40.96 40.96s-18.842 40.96-40.96 40.96c-1.638 1.638-2.458 2.458-4.096 1.638zM589.824 492.746c13.926 0 24.576-10.65 24.576-24.576s-10.65-24.576-24.576-24.576-24.576 10.65-24.576 24.576 10.65 24.576 24.576 24.576zM344.064 459.978c13.926 0 24.576-10.65 24.576-24.576s-10.65-24.576-24.576-24.576-24.576 10.65-24.576 24.576 10.65 24.576 24.576 24.576zM475.136 361.674c13.926 0 24.576-10.65 24.576-24.576s-10.65-24.576-24.576-24.576-24.576 10.65-24.576 24.576 10.65 24.576 24.576 24.576zM229.376 328.906c13.926 0 24.576-10.65 24.576-24.576s-10.65-24.576-24.576-24.576-24.576 10.65-24.576 24.576 10.65 24.576 24.576 24.576z" />
<glyph unicode="&#xe90e;" glyph-name="upload_icon" horiz-adv-x="819" d="M409.6 820.426c-54.067 0-100.762-29.491-126.157-72.909-11.469 4.096-23.757 7.373-37.683 7.373-57.344 0-103.219-45.056-105.677-101.581-46.694-10.65-82.739-52.429-82.739-103.219 0-58.982 47.514-106.496 106.496-106.496h98.304c4.915 0 8.192 3.277 8.192 8.192s-3.277 8.192-8.192 8.192c0 0 0 0 0 0h-98.304c-49.971 0-90.112 40.141-90.112 90.112 0 45.056 31.949 81.92 75.366 89.293 4.096 0.819 6.554 4.096 6.554 8.192 0 0 0 0 0 0.819 0 49.971 40.141 90.112 90.112 90.112 13.107 0 25.395-2.458 36.864-8.192 4.096-1.638 8.192 0 10.65 4.096 22.118 41.779 65.536 69.632 116.326 69.632s94.208-27.853 116.326-69.632c1.638-4.096 6.554-5.734 10.65-4.096 11.469 4.915 23.757 8.192 36.864 8.192 49.971 0 90.112-40.141 90.112-90.112 0 0 0-0.819 0-0.819 0-4.096 3.277-7.373 6.554-8.192 42.598-7.373 75.366-44.237 75.366-89.293 0-49.971-40.141-90.112-90.112-90.112h-98.304c-4.915 0-8.192-3.277-8.192-8.192s3.277-8.192 8.192-8.192c0 0 0 0 0 0h98.304c58.982 0 106.496 47.514 106.496 106.496 0 50.79-35.226 91.75-82.739 103.219-2.458 56.525-49.152 101.581-105.677 101.581-13.107 0-25.395-2.458-37.683-7.373-25.395 43.418-72.090 72.909-126.157 72.909zM407.962 492.746c-1.638 0-3.277-0.819-4.096-2.458l-98.304-98.304c-3.277-3.277-3.277-8.192 0-11.469s8.192-3.277 11.469 0l84.378 84.378v-176.947c0-4.096 4.096-8.192 8.192-8.192s8.192 4.096 8.192 8.192v176.947l84.378-84.378c3.277-3.277 8.192-3.277 11.469 0s3.277 8.192 0 11.469l-98.304 98.304c-1.638 2.458-4.915 3.277-7.373 2.458z" />
<glyph unicode="&#xe90f;" glyph-name="downarrow" horiz-adv-x="819" d="M143.36 606.72c-10.24 10.24-25.6 10.24-35.84 0s-10.24-25.6 0-35.84l281.6-281.6c10.24-10.24 25.6-10.24 35.84 0v0l281.6 281.6c10.24 10.24 10.24 25.6 0 35.84s-25.6 10.24-35.84 0l-261.12-261.12-266.24 261.12z" />
<glyph unicode="&#xe910;" glyph-name="chatsendbutton" horiz-adv-x="819" d="M744.461 475.308l-639.886 330.411c-10.012 6.372-20.025 6.372-30.037 0s-16.384-17.294-16.384-27.307l100.124-331.321-100.124-326.77v-4.551c0-10.923 6.372-20.935 16.384-27.307 3.641-1.82 10.012-4.551 16.384-4.551 3.641 0 10.012 1.82 13.653 4.551l639.886 331.321c10.012 6.372 16.384 17.294 16.384 27.307-0.91 10.923-6.372 21.845-16.384 28.217zM80.909 778.412c0 4.551 3.641 6.372 3.641 8.192 1.82 0 6.372 1.82 10.012 0l638.066-328.59h-554.325l-97.394 320.398zM94.562 107.578c-3.641-1.82-8.192 0-10.012 0s-3.641 4.551-3.641 8.192l98.304 320.398h553.415l-638.066-328.59z" />
<glyph unicode="&#xe911;" glyph-name="close2" horiz-adv-x="819" d="M146.637 739.325c-4.096-0.819-8.192-4.096-7.373-9.011 0-1.638 0.819-4.096 2.458-4.915l256.41-256.41-256.41-256.41c-3.277-3.277-3.277-8.192 0-11.469s8.192-3.277 11.469 0v0l256.41 256.41 256.41-256.41c3.277-3.277 8.192-3.277 11.469 0s3.277 8.192 0 11.469l-256.41 256.41 256.41 256.41c3.277 3.277 3.277 8.192 0 11.469-1.638 1.638-4.096 2.458-6.554 2.458s-4.096-0.819-5.734-2.458l-255.59-256.41-256.41 256.41c-1.638 1.638-4.096 2.458-6.554 2.458z" />
<glyph unicode="&#xe912;" glyph-name="location2" horiz-adv-x="836" d="M421.888 468.48c53.248 0 95.573 42.325 95.573 95.573s-42.325 95.573-95.573 95.573-95.573-42.325-95.573-95.573 43.691-95.573 95.573-95.573zM421.888 632.32c38.229 0 68.267-30.037 68.267-68.267s-30.037-68.267-68.267-68.267-68.267 30.037-68.267 68.267 31.403 68.267 68.267 68.267zM685.397 318.293h-98.304l40.96 60.075c79.189 105.131 66.901 277.163-24.576 368.64-47.787 49.152-113.323 76.459-182.955 76.459s-135.168-27.307-185.685-76.459c-91.477-91.477-102.4-263.509-24.576-367.275l42.325-60.075h-102.4l-150.187-315.392h835.584l-150.187 314.027zM232.107 394.752c-70.997 94.208-60.075 249.856 21.845 333.141 43.691 43.691 102.4 68.267 165.205 68.267s121.515-24.576 165.205-68.267c81.92-81.92 92.843-237.568 21.845-333.141l-185.685-270.336-188.416 270.336zM166.571 290.987h103.765l148.821-215.723 150.187 215.723h99.669l122.88-259.413h-748.203l122.88 259.413z" />
<glyph unicode="&#xe913;" glyph-name="chartsexpand" horiz-adv-x="819" d="M409.498 174.933c-238.933 0-273.067 34.133-273.067 273.067s34.133 273.067 273.067 273.067 273.067-34.133 273.067-273.067-34.133-273.067-273.067-273.067zM409.498 686.933c-201.387 0-238.933-37.547-238.933-238.933s37.547-238.933 238.933-238.933 238.933 37.547 238.933 238.933-37.547 238.933-238.933 238.933zM477.765 413.867h-136.533v-68.267l-102.4 102.4 102.4 102.4v-68.267h136.533v68.267l102.4-102.4-102.4-102.4c0 0 0 68.267 0 68.267z" />
<glyph unicode="&#xe914;" glyph-name="chartsunexpand" horiz-adv-x="819" d="M409.498 174.933c-238.933 0-273.067 34.133-273.067 273.067s34.133 273.067 273.067 273.067 273.067-34.133 273.067-273.067-34.133-273.067-273.067-273.067zM409.498 686.933c-201.387 0-238.933-37.547-238.933-238.933s37.547-238.933 238.933-238.933 238.933 37.547 238.933 238.933-37.547 238.933-238.933 238.933zM546.031 413.867h-170.667v-68.267l-102.4 102.4 102.4 102.4v-68.267h170.667z" />
</font>
</defs>
</svg>
